<mxGraphModel><root><mxCell id="0"/><mxCell id="1" parent="0"/><mxCell id="2" value="Web_Server_Infrastructure" style="whiteSpace=wrap;strokeWidth=2;" vertex="1" parent="1"><mxGeometry x="8" y="311" width="492" height="230" as="geometry"/></mxCell><mxCell id="3" value="Internet" style="whiteSpace=wrap;strokeWidth=2;" vertex="1" parent="1"><mxGeometry x="216" y="8" width="208" height="230" as="geometry"/></mxCell><mxCell id="4" value="User" style="whiteSpace=wrap;strokeWidth=2;" vertex="1" parent="1"><mxGeometry x="274" y="33" width="92" height="54" as="geometry"/></mxCell><mxCell id="5" value="DNS Server" style="whiteSpace=wrap;strokeWidth=2;" vertex="1" parent="1"><mxGeometry x="251" y="159" width="138" height="54" as="geometry"/></mxCell><mxCell id="6" value="Web Server" style="whiteSpace=wrap;strokeWidth=2;" vertex="1" parent="1"><mxGeometry x="250" y="336" width="141" height="54" as="geometry"/></mxCell><mxCell id="7" value="Client's Browser" style="whiteSpace=wrap;strokeWidth=2;" vertex="1" parent="1"><mxGeometry x="43" y="462" width="174" height="54" as="geometry"/></mxCell><mxCell id="8" value="Database" style="whiteSpace=wrap;strokeWidth=2;" vertex="1" parent="1"><mxGeometry x="411" y="614" width="126" height="54" as="geometry"/></mxCell><mxCell id="9" value="Application Logic" style="whiteSpace=wrap;strokeWidth=2;" vertex="1" parent="1"><mxGeometry x="535" y="462" width="183" height="54" as="geometry"/></mxCell><mxCell id="10" value="Types www.foobar.com" style="curved=1;startArrow=none;endArrow=block;exitX=0.5;exitY=1;entryX=0.5;entryY=0.01;" edge="1" parent="1" source="4" target="5"><mxGeometry relative="1" as="geometry"><Array as="points"/></mxGeometry></mxCell><mxCell id="11" value="Resolves domain" style="curved=1;startArrow=none;endArrow=block;exitX=0.5;exitY=1.01;entryX=0.5;entryY=0;" edge="1" parent="1" source="5" target="6"><mxGeometry relative="1" as="geometry"><Array as="points"/></mxGeometry></mxCell><mxCell id="12" value="Serves Website Content" style="curved=1;startArrow=none;endArrow=block;exitX=0;exitY=0.93;entryX=0.5;entryY=0;" edge="1" parent="1" source="6" target="7"><mxGeometry relative="1" as="geometry"><Array as="points"><mxPoint x="130" y="426"/></Array></mxGeometry></mxCell><mxCell id="13" value="Accesses Database" style="curved=1;startArrow=none;endArrow=block;exitX=0.5;exitY=1;entryX=0;entryY=0.01;" edge="1" parent="1" source="6" target="8"><mxGeometry relative="1" as="geometry"><Array as="points"><mxPoint x="320" y="577"/></Array></mxGeometry></mxCell><mxCell id="14" value="Processes Requests" style="curved=1;startArrow=none;endArrow=block;exitX=0.77;exitY=1;entryX=0;entryY=0.01;" edge="1" parent="1" source="6" target="9"><mxGeometry relative="1" as="geometry"><Array as="points"><mxPoint x="410" y="426"/></Array></mxGeometry></mxCell><mxCell id="15" value="Fetches Data" style="curved=1;startArrow=none;endArrow=block;exitX=0.5;exitY=1;entryX=0.99;entryY=0.01;" edge="1" parent="1" source="9" target="8"><mxGeometry relative="1" as="geometry"><Array as="points"><mxPoint x="627" y="577"/></Array></mxGeometry></mxCell></root></mxGraphModel>